<svg width="288" height="282" viewBox="0 0 288 282" fill="none" xmlns="http://www.w3.org/2000/svg">
<path d="M174.796 160.46L191.286 248.567L24.5585 280.264L1 154.394L89.5 137.124L166.5 122.124" fill="#F9F7F3"/>
<path d="M174.796 160.46L191.286 248.567L24.5585 280.264L1 154.394L89.5 137.124L166.5 122.124" stroke="#332E2B" stroke-width="2" stroke-linecap="round" stroke-linejoin="round"/>
<path d="M277.739 71.3769L265.63 135.218C263.937 134.221 262.176 133.346 260.361 132.597C261.094 127.178 260.829 124.168 259.69 122.46C259.856 122.177 259.971 121.866 260.03 121.543C260.174 120.782 260.012 119.994 259.579 119.354C259.147 118.713 258.48 118.272 257.725 118.128C256.97 117.983 256.189 118.146 255.553 118.582C254.917 119.017 254.48 119.69 254.336 120.451C254.321 120.538 254.306 120.631 254.295 120.717C252.052 121.732 250.582 125.194 249.101 129.347L249.071 129.65C239.941 128.554 230.704 130.436 222.714 135.02C222.098 124.051 225.899 109.654 222.545 104.835C222.716 104.552 222.834 104.239 222.891 103.913C222.971 103.495 222.959 103.064 222.856 102.651C222.753 102.239 222.562 101.854 222.295 101.523C222.029 101.193 221.695 100.925 221.315 100.738C220.935 100.552 220.52 100.451 220.098 100.444C219.675 100.436 219.256 100.522 218.87 100.694C218.484 100.867 218.14 101.122 217.863 101.443C217.585 101.764 217.38 102.142 217.263 102.55C217.145 102.959 217.118 103.389 217.182 103.81C209.581 108.404 208.34 137.044 198.443 135.435C188.48 133.809 203.247 93.0219 195.853 83.8088C196.08 83.4798 196.234 83.1052 196.304 82.7106C196.376 82.3339 196.373 81.9468 196.296 81.5712C196.219 81.1957 196.069 80.8391 195.856 80.5218C195.642 80.2045 195.368 79.9328 195.05 79.7221C194.732 79.5115 194.376 79.366 194.002 79.294C193.628 79.222 193.244 79.2249 192.871 79.3025C192.499 79.3801 192.145 79.5309 191.83 79.7463C191.515 79.9618 191.246 80.2376 191.037 80.558C190.827 80.8785 190.683 81.2373 190.612 81.6139C190.56 81.8806 190.546 82.1534 190.571 82.4239C179.605 88.0119 179 147.69 163.197 145.018C147.678 142.397 164.86 95.1758 157.259 85.8079C157.314 85.6603 157.357 85.508 157.386 85.3529C157.458 84.9758 157.455 84.5883 157.378 84.2123C157.301 83.8364 157.151 83.4795 156.937 83.162C156.723 82.8444 156.449 82.5725 156.13 82.3616C155.812 82.1508 155.455 82.0052 155.081 81.9332C154.707 81.8612 154.322 81.8642 153.949 81.942C153.576 82.0197 153.222 82.1708 152.907 82.3865C152.592 82.6022 152.322 82.8784 152.113 83.1992C151.904 83.52 151.759 83.8792 151.688 84.2562C151.663 84.3951 151.647 84.5354 151.641 84.6764C140.891 89.4362 134.936 128.429 128.662 127.589L144.202 45.6533L277.739 71.3769ZM179.614 59.6777C179.73 59.0672 179.664 58.4357 179.424 57.8632C179.183 57.2907 178.78 56.8028 178.264 56.4613C177.749 56.1198 177.145 55.94 176.528 55.9447C175.911 55.9493 175.309 56.1382 174.799 56.4874C174.289 56.8366 173.892 57.3304 173.661 57.9065C173.429 58.4826 173.372 59.115 173.497 59.7237C173.622 60.3324 173.923 60.8902 174.362 61.3264C174.802 61.7627 175.36 62.0578 175.966 62.1744C176.778 62.3279 177.617 62.1516 178.301 61.6839C178.984 61.2161 179.456 60.495 179.614 59.6777V59.6777ZM166.564 57.1598C166.68 56.5493 166.613 55.9178 166.373 55.3453C166.133 54.7728 165.729 54.2849 165.214 53.9434C164.699 53.6019 164.094 53.4221 163.477 53.4268C162.86 53.4314 162.259 53.6203 161.749 53.9695C161.238 54.3187 160.842 54.8125 160.61 55.3886C160.379 55.9646 160.321 56.597 160.446 57.2058C160.571 57.8145 160.872 58.3723 161.312 58.8085C161.751 59.2447 162.309 59.5398 162.915 59.6565C163.728 59.8129 164.568 59.6378 165.253 59.1696C165.937 58.7014 166.409 57.9784 166.564 57.1598V57.1598ZM153.517 54.6495C153.632 54.0392 153.565 53.4082 153.324 52.8363C153.084 52.2643 152.68 51.7771 152.165 51.4362C151.65 51.0952 151.046 50.9159 150.429 50.9209C149.813 50.9259 149.212 51.115 148.702 51.4642C148.192 51.8134 147.796 52.3071 147.565 52.8829C147.333 53.4587 147.277 54.0906 147.402 54.699C147.527 55.3073 147.828 55.8646 148.267 56.3004C148.706 56.7363 149.264 57.0312 149.869 57.1477C150.682 57.3024 151.522 57.1263 152.205 56.658C152.889 56.1898 153.36 55.4675 153.517 54.6495V54.6495Z" fill="white"/>
<path d="M274.405 142.037C282.469 150.163 287 161.184 287 172.676C287 184.168 282.469 195.19 274.405 203.316C266.341 211.442 255.404 216.007 243.999 216.007C232.595 216.007 221.658 211.442 213.594 203.316L243.999 172.676L274.405 142.037Z" fill="#E5BA4C"/>
<path d="M274.405 142.036L243.999 172.673L213.594 142.033C219.598 135.989 227.242 131.869 235.563 130.189C243.885 128.51 252.513 129.347 260.364 132.594C262.179 133.343 263.94 134.218 265.633 135.215V135.215C268.837 137.097 271.786 139.39 274.405 142.036Z" fill="#F3DEAA"/>
<path d="M259.698 122.46C260.837 124.168 261.102 127.178 260.369 132.597C256.757 131.101 252.959 130.108 249.08 129.649L249.11 129.345C250.591 125.192 252.062 121.731 254.305 120.716C254.242 121.38 254.406 122.045 254.769 122.602C255.133 123.159 255.675 123.574 256.306 123.777C256.936 123.981 257.616 123.961 258.233 123.721C258.851 123.481 259.368 123.036 259.699 122.459L259.698 122.46Z" fill="white"/>
<path d="M257.734 118.128C258.489 118.273 259.156 118.714 259.588 119.355C260.02 119.995 260.182 120.782 260.038 121.543C259.98 121.867 259.864 122.177 259.698 122.461C258.983 121.459 257.913 120.773 256.71 120.543C255.912 120.317 255.06 120.378 254.302 120.718C254.312 120.631 254.327 120.539 254.344 120.451C254.415 120.074 254.558 119.714 254.767 119.393C254.976 119.072 255.245 118.796 255.56 118.58C255.875 118.365 256.229 118.214 256.602 118.136C256.975 118.059 257.36 118.056 257.734 118.128V118.128Z" fill="#E5BA4C"/>
<path d="M259.698 122.461C259.367 123.038 258.849 123.483 258.232 123.723C257.614 123.963 256.934 123.982 256.304 123.779C255.674 123.575 255.132 123.161 254.768 122.604C254.404 122.047 254.24 121.381 254.303 120.718C255.061 120.378 255.913 120.317 256.712 120.543C257.914 120.774 258.983 121.46 259.698 122.461V122.461Z" fill="#E5BA4C"/>
<path d="M243.999 172.673L213.594 203.313C209.599 199.29 206.43 194.514 204.267 189.256C202.105 183.999 200.992 178.364 200.992 172.673C200.992 166.982 202.105 161.347 204.267 156.09C206.43 150.832 209.599 146.056 213.594 142.033L243.999 172.673Z" fill="#F9F7F3"/>
<path d="M220.595 100.5C220.969 100.571 221.326 100.716 221.644 100.927C221.962 101.137 222.237 101.409 222.451 101.726C222.665 102.043 222.815 102.4 222.892 102.776C222.969 103.152 222.971 103.539 222.9 103.916C222.842 104.242 222.724 104.555 222.553 104.838C222.034 104.056 221.233 103.508 220.32 103.311C219.791 103.179 219.242 103.156 218.705 103.243C218.168 103.329 217.653 103.523 217.192 103.813C217.12 103.351 217.16 102.878 217.308 102.435C217.455 101.992 217.706 101.591 218.04 101.266C218.374 100.941 218.78 100.702 219.225 100.569C219.669 100.435 220.139 100.412 220.595 100.5Z" fill="#E5BA4C"/>
<path d="M222.553 104.838C225.907 109.652 222.102 124.05 222.722 135.023C217.162 138.218 212.379 142.623 208.72 147.916C205.062 153.21 202.621 159.258 201.575 165.621L174.797 160.464L124.27 150.732L128.158 130.228L128.663 127.593C134.937 128.434 140.89 89.4408 151.655 84.6826C151.626 85.3788 151.844 86.0627 152.271 86.6109C152.697 87.1592 153.305 87.5357 153.983 87.6724C154.661 87.8092 155.365 87.6972 155.968 87.3568C156.572 87.0163 157.034 86.4697 157.273 85.8157C164.874 95.1835 147.692 142.405 163.211 145.026C179.016 147.697 179.618 88.0196 190.585 82.4316C190.64 83.0289 190.875 83.5947 191.26 84.052C191.645 84.5094 192.161 84.836 192.737 84.9873C193.313 85.1387 193.921 85.1075 194.479 84.898C195.036 84.6885 195.517 84.3108 195.854 83.8165C203.247 93.0296 188.478 133.817 198.444 135.443C208.341 137.052 209.583 108.412 217.184 103.817C217.274 104.414 217.546 104.967 217.962 105.402C218.377 105.836 218.917 106.13 219.505 106.242C220.093 106.355 220.702 106.281 221.246 106.03C221.791 105.779 222.245 105.364 222.546 104.843L222.553 104.838Z" fill="white"/>
<path d="M220.319 103.311C221.232 103.508 222.033 104.056 222.553 104.838C222.252 105.36 221.798 105.775 221.254 106.025C220.709 106.276 220.1 106.35 219.512 106.238C218.924 106.125 218.385 105.832 217.969 105.397C217.553 104.963 217.282 104.409 217.191 103.813C217.653 103.523 218.168 103.329 218.705 103.243C219.242 103.156 219.791 103.18 220.319 103.311V103.311Z" fill="#E5BA4C"/>
<path d="M194.014 79.2948C194.769 79.4411 195.436 79.8831 195.868 80.524C196.3 81.1648 196.463 81.9523 196.32 82.7137C196.247 83.1086 196.09 83.4831 195.861 83.8118C195.151 82.9003 194.133 82.2834 193.001 82.0781C192.178 81.9144 191.324 82.0374 190.579 82.427C190.554 82.1564 190.568 81.8837 190.62 81.617C190.691 81.2396 190.835 80.8801 191.044 80.559C191.253 80.2379 191.523 79.9615 191.838 79.7458C192.154 79.53 192.508 79.3791 192.882 79.3017C193.255 79.2243 193.64 79.222 194.014 79.2948V79.2948Z" fill="#E5BA4C"/>
<path d="M195.861 83.812C195.524 84.3063 195.044 84.684 194.486 84.8935C193.929 85.103 193.32 85.1342 192.744 84.9828C192.169 84.8315 191.653 84.5049 191.268 84.0475C190.883 83.5902 190.647 83.0244 190.593 82.4271C191.337 82.0376 192.191 81.9146 193.015 82.0783C194.142 82.2867 195.154 82.9033 195.861 83.812V83.812Z" fill="#E5BA4C"/>
<path d="M177.137 55.9953C177.744 56.1115 178.303 56.4064 178.743 56.8428C179.184 57.2793 179.486 57.8375 179.611 58.447C179.737 59.0564 179.68 59.6897 179.448 60.2666C179.216 60.8435 178.82 61.3382 178.309 61.688C177.798 62.0378 177.196 62.227 176.578 62.2317C175.96 62.2364 175.355 62.0563 174.839 61.7143C174.323 61.3724 173.919 60.8838 173.679 60.3104C173.438 59.7371 173.372 59.1048 173.488 58.4935C173.646 57.676 174.118 56.9545 174.802 56.4864C175.485 56.0184 176.325 55.8418 177.137 55.9953V55.9953Z" fill="#E5BA4C"/>
<path d="M164.085 53.4831C164.691 53.5995 165.249 53.8944 165.688 54.3305C166.128 54.7666 166.43 55.3243 166.555 55.9331C166.68 56.5419 166.623 57.1744 166.391 57.7506C166.16 58.3268 165.764 58.8208 165.253 59.1701C164.743 59.5195 164.141 59.7085 163.524 59.7132C162.907 59.7179 162.303 59.5381 161.787 59.1966C161.272 58.8551 160.868 58.3672 160.628 57.7946C160.388 57.222 160.321 56.5904 160.437 55.9798C160.593 55.1615 161.064 54.4389 161.748 53.9707C162.432 53.5025 163.272 53.3272 164.085 53.4831Z" fill="#E5BA4C"/>
<path d="M153.965 189.172L163.241 238.717L155.874 240.117L146.603 190.572L153.965 189.172Z" fill="#F9F7F3"/>
<path d="M155.094 81.9343C155.85 82.0806 156.517 82.5228 156.949 83.164C157.381 83.8052 157.544 84.5931 157.4 85.3547C157.371 85.5098 157.328 85.6621 157.272 85.8097C156.616 84.9742 155.668 84.4221 154.622 84.2656C153.614 84.1079 152.583 84.2508 151.655 84.6767C151.661 84.5357 151.677 84.3953 151.702 84.2565C151.846 83.4954 152.285 82.8234 152.921 82.388C153.557 81.9526 154.339 81.7894 155.094 81.9343Z" fill="#E5BA4C"/>
<path d="M154.621 84.2671C155.668 84.4236 156.615 84.9757 157.272 85.8112C157.034 86.4653 156.571 87.0118 155.968 87.3523C155.364 87.6928 154.66 87.8048 153.982 87.668C153.304 87.5312 152.697 87.1548 152.27 86.6065C151.843 86.0582 151.625 85.3743 151.655 84.6782C152.582 84.2523 153.614 84.1094 154.621 84.2671V84.2671Z" fill="#E5BA4C"/>
<path d="M148.938 162.314L141.573 163.714L146.604 190.585L153.969 189.185L148.938 162.314Z" fill="#F3DFAA"/>
<path d="M151.039 50.9716C151.645 51.088 152.203 51.3829 152.643 51.819C153.082 52.2551 153.384 52.8128 153.509 53.4216C153.634 54.0304 153.577 54.6629 153.346 55.239C153.114 55.8152 152.718 56.3093 152.207 56.6586C151.697 57.0079 151.095 57.1969 150.479 57.2016C149.862 57.2063 149.257 57.0266 148.742 56.6851C148.226 56.3435 147.823 55.8556 147.582 55.283C147.342 54.7105 147.276 54.0789 147.392 53.4683C147.548 52.6506 148.02 51.9287 148.703 51.4607C149.387 50.9928 150.227 50.8169 151.039 50.9716V50.9716Z" fill="#E5BA4C"/>
<path d="M138.508 221.896L142.399 242.676V242.68L135.037 244.076L131.145 223.294L138.508 221.896Z" fill="#F9F7F3"/>
<path d="M128.102 166.271L120.737 167.671L131.153 223.302L138.517 221.902L128.102 166.271Z" fill="#F3DFAA"/>
<path d="M114.562 209.251L121.559 246.639L114.195 248.039L107.194 210.651L114.556 209.251H114.562Z" fill="#F9F7F3"/>
<path d="M107.256 170.222L114.563 209.251H114.557L107.195 210.651L99.8881 171.622L107.256 170.222Z" fill="#F3DFAA"/>
<path d="M104.879 50.0799C107.113 58.6081 106.477 67.6416 103.073 75.7672C97.2121 89.4967 95.662 104.705 98.6312 119.348L98.7893 120.119C99.1887 122.026 98.8501 124.014 97.8429 125.678C96.8356 127.341 95.2357 128.554 93.3704 129.068L92.1226 129.396L92.1075 129.34L77.1289 71.7325C76.0406 77.6177 72.7426 77.5874 69.9489 75.5154C71.7717 71.3624 71.4 64.6459 67.6083 65.6455C63.5637 66.7073 66.3273 72.8292 69.9489 75.5154C68.5295 78.7569 65.7719 80.4375 62.2722 75.655L77.2478 133.27L77.2629 133.321L76.2965 133.578C75.6923 133.729 75.0722 133.806 74.4496 133.808C72.8366 133.805 71.2668 133.283 69.9677 132.32C68.6686 131.357 67.7077 130.001 67.2244 128.451C62.6975 113.962 53.875 101.218 41.944 91.9335C36.9456 88.0232 32.9441 82.9689 30.2711 77.1893C27.5981 71.4098 26.3305 65.0715 26.5735 58.6998C26.8164 52.328 28.5629 46.1064 31.6682 40.5506C34.7734 34.9948 39.148 30.2647 44.4293 26.7525C49.7106 23.2403 55.7466 21.0471 62.0369 20.3547C68.3272 19.6623 74.6907 20.4906 80.6 22.7709C86.5093 25.0513 91.7941 28.718 96.0164 33.4672C100.239 38.2164 103.277 43.9114 104.879 50.0799V50.0799Z" fill="#E5BA4C"/>
<path d="M101.038 139.038C101.167 139.526 101.199 140.035 101.132 140.536C101.064 141.036 100.9 141.518 100.647 141.954C100.394 142.391 100.058 142.772 99.6577 143.076C99.2578 143.381 98.802 143.603 98.3167 143.729L79.3928 148.723C78.908 148.85 78.403 148.881 77.9066 148.812C77.4102 148.743 76.9322 148.576 76.4998 148.32C76.0675 148.065 75.6893 147.727 75.3868 147.324C75.0843 146.921 74.8636 146.463 74.7371 145.974C74.6532 145.656 74.6107 145.329 74.6107 145C74.6119 144.151 74.892 143.325 75.4074 142.653C75.9228 141.98 76.6446 141.499 77.4601 141.283L96.3824 136.289C97.2096 136.072 98.0853 136.138 98.8706 136.479C99.4013 136.711 99.8725 137.062 100.248 137.506C100.624 137.949 100.894 138.473 101.038 139.038V139.038Z" fill="#F9F7F3"/>
<path d="M99.1581 242.261L91.7933 243.66L93.3555 252.009L100.72 250.61L99.1581 242.261Z" fill="#F9F7F3"/>
<path d="M99.1609 143.57C99.3252 144.208 99.4087 144.864 99.4092 145.524C99.4069 147.223 98.8466 148.873 97.8157 150.218C96.7848 151.562 95.3413 152.525 93.7104 152.956L87.3252 154.638C86.3557 154.895 85.3454 154.957 84.3523 154.82C83.3591 154.683 82.4025 154.35 81.5372 153.84C80.6719 153.33 79.9149 152.653 79.3095 151.848C78.7042 151.042 78.2623 150.125 78.0093 149.147L99.1609 143.57Z" fill="#F9F7F3"/>
<path d="M86.4143 174.185L99.1546 242.256L91.7925 243.656L79.0461 175.585L86.4143 174.185Z" fill="#E5BA4C"/>
<path d="M99.095 131.536C99.1755 131.854 99.2164 132.182 99.2169 132.511C99.2172 133.362 98.9377 134.188 98.4221 134.862C97.9066 135.535 97.184 136.018 96.3675 136.233L77.4451 141.227C76.8688 141.381 76.2645 141.395 75.6816 141.268C75.0987 141.142 74.5538 140.878 74.0915 140.499V140.499C73.648 140.137 73.2899 139.68 73.0434 139.161C72.7968 138.642 72.6679 138.075 72.666 137.5C72.6672 136.65 72.9474 135.825 73.4628 135.152C73.9782 134.48 74.6999 133.998 75.5154 133.782L76.2997 133.577L77.266 133.321L92.1227 129.403L93.3706 129.075L94.4378 128.793C95.4162 128.536 96.456 128.68 97.3291 129.194C98.2021 129.708 98.8372 130.55 99.095 131.536V131.536Z" fill="#F9F7F3"/>
<path d="M92.1028 129.347L92.1179 129.403L77.2612 133.321L77.2461 133.269L62.2705 75.6546C65.7717 80.4371 68.5293 78.7565 69.9472 75.5151C72.7409 77.587 76.0389 77.6174 77.1272 71.7321L92.1028 129.347Z" fill="#E5BA4C"/>
<path d="M67.608 65.6453C71.3997 64.6457 71.7715 71.3622 69.9487 75.5152C66.3271 72.8289 63.5634 66.7116 67.608 65.6453Z" fill="#E5BA4C"/>
<path d="M60.338 198.257C61.2532 203.153 60.2016 208.214 57.4145 212.329C54.6274 216.443 50.3329 219.274 45.4753 220.198L44.5089 215.024C47.0099 214.549 49.3253 213.367 51.1849 211.616C53.0444 209.865 54.3714 207.617 55.011 205.135C55.6506 202.653 55.5764 200.038 54.7971 197.597C54.0178 195.156 52.5655 192.988 50.6096 191.347L54.1198 187.455C57.3609 190.23 59.5563 194.044 60.338 198.257Z" fill="#F9F7F3"/>
<path d="M54.1199 187.455L50.6097 191.347C48.3882 189.477 45.6259 188.381 42.7355 188.223C39.845 188.066 36.9816 188.855 34.5729 190.473C32.1642 192.09 30.3396 194.45 29.3716 197.199C28.4036 199.948 28.3441 202.939 29.2022 205.725L29.1194 205.751L24.0528 206.715C23.9143 206.222 23.8029 205.725 23.7066 205.218C22.9903 201.398 23.4681 197.448 25.0741 193.913C26.6801 190.379 29.3351 187.433 32.6729 185.484C36.0106 183.534 39.8665 182.676 43.7086 183.029C47.5506 183.381 51.1894 184.927 54.1229 187.452L54.1199 187.455Z" fill="#E5BA4C"/>
<path d="M49.5151 251.695L51.0775 260.037L37.121 262.693L35.5585 254.345L49.5151 251.695Z" fill="#F3DEAA"/>
<path d="M47.1899 239.255L48.7523 247.598L34.7898 250.254L33.2288 241.907L47.1899 239.255Z" fill="#F3DEAA"/>
<path d="M46.5546 154.353C46.6901 155.084 46.6076 155.839 46.3176 156.523C46.0276 157.206 45.543 157.788 44.925 158.195C44.307 158.601 43.5834 158.814 42.8456 158.806C42.1077 158.798 41.3887 158.57 40.7795 158.15C40.1702 157.731 39.6979 157.139 39.4223 156.449C39.1467 155.759 39.0801 155.003 39.231 154.275C39.3818 153.547 39.7434 152.881 40.2699 152.36C40.7965 151.839 41.4644 151.487 42.1894 151.348C42.6718 151.257 43.1675 151.261 43.648 151.363C44.1286 151.464 44.5846 151.66 44.99 151.939C45.3954 152.218 45.7423 152.575 46.0107 152.989C46.2792 153.403 46.464 153.867 46.5546 154.353V154.353Z" fill="#E5BA4C"/>
<path d="M44.8595 226.817L46.422 235.158L32.4594 237.814L30.8984 229.467L44.8595 226.817Z" fill="#F3DEAA"/>
<path d="M44.5089 215.024L45.4752 220.198C40.8768 221.071 36.1205 220.17 32.1511 217.673C28.1818 215.175 25.2898 211.265 24.0497 206.718L29.1163 205.753L29.1991 205.727C30.1728 208.901 32.2714 211.603 35.0949 213.317C37.9184 215.032 41.2694 215.639 44.5089 215.024V215.024Z" fill="#F3DEAA"/>
<path d="M30.9226 157.322C31.0593 158.053 30.9779 158.808 30.6888 159.492C30.3996 160.176 29.9156 160.759 29.298 161.166C28.6804 161.574 27.9568 161.787 27.2188 161.78C26.4807 161.773 25.7613 161.546 25.1514 161.127C24.5416 160.708 24.0687 160.116 23.7924 159.426C23.5162 158.737 23.4491 157.98 23.5996 157.252C23.75 156.523 24.1113 155.857 24.6378 155.335C25.1642 154.814 25.8322 154.462 26.5574 154.323C27.0394 154.231 27.5347 154.235 28.015 154.336C28.4953 154.437 28.9512 154.632 29.3566 154.911C29.7619 155.189 30.1089 155.546 30.3776 155.959C30.6463 156.373 30.8315 156.836 30.9226 157.322V157.322Z" fill="#E5BA4C"/>
<path d="M15.2921 160.296C15.4277 161.027 15.3452 161.782 15.0552 162.466C14.7651 163.149 14.2805 163.731 13.6625 164.137C13.0446 164.544 12.321 164.756 11.5831 164.748C10.8453 164.741 10.1263 164.512 9.51701 164.093C8.90771 163.674 8.43543 163.082 8.15982 162.392C7.88422 161.702 7.81764 160.946 7.96851 160.218C8.11938 159.49 8.48093 158.823 9.00748 158.303C9.53403 157.782 10.202 157.43 10.9269 157.291C11.4094 157.199 11.9052 157.204 12.3859 157.305C12.8666 157.406 13.3228 157.602 13.7283 157.881C14.1338 158.16 14.4806 158.517 14.749 158.931C15.0173 159.346 15.2019 159.81 15.2921 160.296V160.296Z" fill="#E5BA4C"/>
<path d="M74.0873 140.502C73.6438 140.14 73.2858 139.683 73.0392 139.164C72.7927 138.646 72.6638 138.078 72.6619 137.503C72.6631 136.653 72.9432 135.828 73.4586 135.155C73.974 134.483 74.6958 134.001 75.5113 133.785L76.2955 133.58L77.2619 133.324L92.1186 129.406L93.3664 129.079L94.4336 128.796C94.9187 128.668 95.4242 128.636 95.9213 128.704C96.4184 128.773 96.8972 128.939 97.3306 129.193C97.7639 129.448 98.1432 129.786 98.4468 130.189C98.7503 130.591 98.9723 131.05 99.0999 131.539C99.1804 131.858 99.2213 132.185 99.2218 132.514C99.2221 133.365 98.9426 134.191 98.427 134.865C97.9114 135.538 97.1889 136.021 96.3724 136.236L77.4455 141.227C76.8691 141.381 76.2648 141.395 75.6819 141.268C75.0991 141.142 74.5542 140.878 74.0918 140.499" stroke="#332E2B" stroke-width="2" stroke-linecap="round" stroke-linejoin="round"/>
<path d="M77.1294 71.7321L92.1035 129.347" stroke="#332E2B" stroke-width="2" stroke-linecap="round" stroke-linejoin="round"/>
<path d="M69.9488 75.515C72.7425 77.587 76.0405 77.6173 77.1288 71.7321" stroke="#332E2B" stroke-width="2" stroke-linecap="round" stroke-linejoin="round"/>
<path d="M69.9487 75.5152C71.7715 71.3622 71.3997 64.6457 67.608 65.6453C63.5634 66.7116 66.3271 72.8289 69.9487 75.5152Z" stroke="#332E2B" stroke-width="2" stroke-linecap="round" stroke-linejoin="round"/>
<path d="M77.2461 133.269L62.2705 75.6546C65.7717 80.4371 68.5293 78.7565 69.9472 75.515" stroke="#332E2B" stroke-width="2" stroke-linecap="round" stroke-linejoin="round"/>
<path d="M98.8706 136.479C99.5984 136.798 100.209 137.338 100.619 138.023C101.028 138.708 101.215 139.505 101.154 140.303C101.093 141.1 100.787 141.859 100.279 142.473C99.7701 143.087 99.0843 143.526 98.3167 143.729L79.3928 148.723C78.908 148.85 78.403 148.881 77.9066 148.812C77.4102 148.743 76.9322 148.576 76.4998 148.32C76.0675 148.065 75.6893 147.727 75.3868 147.324C75.0843 146.921 74.8636 146.463 74.7371 145.974C74.6532 145.656 74.6107 145.329 74.6107 145C74.6119 144.151 74.892 143.325 75.4074 142.653C75.9228 141.98 76.6446 141.499 77.4601 141.283L96.3824 136.289C97.2096 136.072 98.0853 136.138 98.8706 136.479V136.479Z" stroke="#332E2B" stroke-width="2" stroke-linecap="round" stroke-linejoin="round"/>
<path d="M93.7104 152.958L87.3252 154.64C86.3557 154.897 85.3454 154.958 84.3523 154.821C83.3591 154.684 82.4025 154.351 81.5372 153.841C80.6719 153.331 79.9149 152.654 79.3095 151.849C78.7042 151.044 78.2623 150.126 78.0093 149.149L99.1609 143.57C99.3252 144.208 99.4087 144.864 99.4092 145.524C99.4072 147.223 98.8471 148.874 97.8162 150.219C96.7852 151.563 95.3416 152.526 93.7104 152.958V152.958Z" stroke="#332E2B" stroke-width="2" stroke-linecap="round" stroke-linejoin="round"/>
<path d="M265.63 135.223C275.162 140.83 282.161 149.948 285.15 160.654C288.14 171.361 286.887 182.819 281.655 192.612C276.423 202.405 267.622 209.768 257.107 213.149C246.592 216.529 235.185 215.663 225.292 210.732C215.399 205.802 207.792 197.192 204.076 186.719C200.36 176.247 200.826 164.729 205.374 154.595C209.922 144.461 218.198 136.504 228.457 132.4C238.715 128.296 250.154 128.367 260.362 132.598C262.176 133.346 263.937 134.222 265.63 135.219" stroke="#332E2B" stroke-width="2" stroke-linecap="round" stroke-linejoin="round"/>
<path d="M98.6522 135.833L98.7485 135.813L128.158 130.224" fill="#C4C4C4"/>
<path d="M98.6522 135.833L98.7485 135.813L128.158 130.224" stroke="#332E2B" stroke-width="2" stroke-linecap="round" stroke-linejoin="round"/>
<path d="M21.9635 169.832L121.126 150.98" stroke="#332E2B" stroke-width="2" stroke-linecap="round" stroke-linejoin="round"/>
<path d="M15.2921 160.296C15.4277 161.027 15.3452 161.782 15.0552 162.466C14.7651 163.149 14.2805 163.731 13.6625 164.137C13.0446 164.544 12.321 164.756 11.5831 164.748C10.8453 164.741 10.1263 164.512 9.51701 164.093C8.90771 163.674 8.43543 163.082 8.15982 162.392C7.88422 161.702 7.81764 160.946 7.96851 160.218C8.11938 159.49 8.48093 158.823 9.00748 158.303C9.53403 157.782 10.202 157.43 10.9269 157.291C11.4094 157.199 11.9052 157.204 12.3859 157.305C12.8666 157.406 13.3228 157.602 13.7283 157.881C14.1338 158.16 14.4806 158.517 14.749 158.931C15.0173 159.346 15.2019 159.81 15.2921 160.296V160.296Z" stroke="#332E2B" stroke-width="2" stroke-linecap="round" stroke-linejoin="round"/>
<path d="M30.9226 157.322C31.0593 158.053 30.9779 158.808 30.6888 159.492C30.3996 160.176 29.9156 160.759 29.298 161.166C28.6804 161.574 27.9568 161.787 27.2188 161.78C26.4807 161.773 25.7613 161.546 25.1514 161.127C24.5416 160.708 24.0687 160.116 23.7924 159.426C23.5162 158.737 23.4491 157.98 23.5996 157.252C23.75 156.523 24.1113 155.857 24.6378 155.335C25.1642 154.814 25.8322 154.462 26.5574 154.323C27.0394 154.231 27.5347 154.235 28.015 154.336C28.4953 154.437 28.9512 154.632 29.3566 154.911C29.7619 155.189 30.1089 155.546 30.3776 155.959C30.6463 156.373 30.8315 156.836 30.9226 157.322V157.322Z" stroke="#332E2B" stroke-width="2" stroke-linecap="round" stroke-linejoin="round"/>
<path d="M46.5546 154.353C46.6901 155.084 46.6076 155.839 46.3176 156.523C46.0276 157.206 45.543 157.788 44.925 158.195C44.307 158.601 43.5834 158.814 42.8456 158.806C42.1077 158.798 41.3887 158.57 40.7795 158.15C40.1702 157.731 39.6979 157.139 39.4223 156.449C39.1467 155.759 39.0801 155.003 39.231 154.275C39.3818 153.547 39.7434 152.881 40.2699 152.36C40.7965 151.839 41.4644 151.487 42.1894 151.348C42.6718 151.257 43.1675 151.261 43.648 151.363C44.1286 151.464 44.5846 151.66 44.99 151.939C45.3954 152.218 45.7423 152.575 46.0107 152.989C46.2792 153.403 46.464 153.867 46.5546 154.353V154.353Z" stroke="#332E2B" stroke-width="2" stroke-linecap="round" stroke-linejoin="round"/>
<path d="M201.575 165.617L174.797 160.46L124.27 150.728L128.158 130.223L128.663 127.589L144.201 45.6533L277.74 71.377L265.63 135.218V135.223" stroke="#332E2B" stroke-width="2" stroke-linecap="round" stroke-linejoin="round"/>
<path d="M156.266 62.9225L262.511 83.3859" stroke="#332E2B" stroke-width="2" stroke-linecap="round" stroke-linejoin="round"/>
<path d="M153.517 54.6495C153.401 55.2597 153.108 55.8217 152.676 56.2643C152.243 56.7069 151.69 57.0103 151.086 57.1361C150.482 57.262 149.855 57.2046 149.284 56.9712C148.712 56.7378 148.222 56.339 147.876 55.8251C147.53 55.3112 147.342 54.7053 147.337 54.0841C147.333 53.4628 147.511 52.8541 147.849 52.3349C148.188 51.8157 148.672 51.4093 149.239 51.1671C149.807 50.9249 150.433 50.8578 151.039 50.9743C151.441 51.0516 151.824 51.208 152.166 51.4346C152.509 51.6611 152.803 51.9534 153.033 52.2947C153.263 52.636 153.424 53.0196 153.507 53.4237C153.59 53.8277 153.593 54.2442 153.517 54.6495V54.6495Z" stroke="#332E2B" stroke-width="2" stroke-linecap="round" stroke-linejoin="round"/>
<path d="M166.564 57.16C166.448 57.7705 166.156 58.3327 165.723 58.7756C165.29 59.2185 164.737 59.5221 164.133 59.648C163.529 59.774 162.901 59.7166 162.329 59.4832C161.758 59.2498 161.268 58.8508 160.921 58.3367C160.574 57.8226 160.387 57.2164 160.382 56.5949C160.377 55.9733 160.555 55.3643 160.894 54.8448C161.233 54.3253 161.717 53.9187 162.285 53.6763C162.853 53.434 163.479 53.3668 164.085 53.4832C164.488 53.56 164.871 53.7161 165.214 53.9426C165.557 54.1691 165.852 54.4615 166.082 54.8031C166.312 55.1446 166.473 55.5286 166.556 55.9331C166.639 56.3375 166.642 56.7545 166.564 57.16V57.16Z" stroke="#332E2B" stroke-width="2" stroke-linecap="round" stroke-linejoin="round"/>
<path d="M179.615 59.678C179.498 60.2881 179.204 60.8495 178.771 61.2914C178.337 61.7334 177.784 62.0359 177.18 62.1609C176.576 62.2859 175.949 62.2277 175.377 61.9936C174.806 61.7595 174.317 61.3601 173.971 60.8459C173.625 60.3316 173.438 59.7255 173.434 59.1042C173.429 58.4829 173.608 57.8743 173.947 57.3552C174.286 56.8361 174.769 56.4299 175.337 56.1878C175.905 55.9457 176.532 55.8787 177.137 55.9952C177.95 56.1531 178.667 56.6297 179.132 57.3202C179.596 58.0106 179.77 58.8586 179.615 59.678V59.678Z" stroke="#332E2B" stroke-width="2" stroke-linecap="round" stroke-linejoin="round"/>
<path d="M259.697 122.461C260.837 124.169 261.102 127.178 260.369 132.598" stroke="#332E2B" stroke-width="2" stroke-linecap="round" stroke-linejoin="round"/>
<path d="M249.108 129.347C250.589 125.194 252.06 121.732 254.302 120.718" stroke="#332E2B" stroke-width="2" stroke-linecap="round" stroke-linejoin="round"/>
<path d="M222.553 104.838C225.907 109.653 222.101 124.05 222.722 135.023" stroke="#332E2B" stroke-width="2" stroke-linecap="round" stroke-linejoin="round"/>
<path d="M195.861 83.8121C203.254 93.0253 188.485 133.812 198.451 135.438C208.348 137.048 209.59 108.407 217.191 103.813" stroke="#332E2B" stroke-width="2" stroke-linecap="round" stroke-linejoin="round"/>
<path d="M157.273 85.8112C164.874 95.1791 147.692 142.401 163.211 145.022C179.016 147.693 179.618 88.0151 190.585 82.4272" stroke="#332E2B" stroke-width="2" stroke-linecap="round" stroke-linejoin="round"/>
<path d="M128.662 127.589C134.936 128.429 140.889 89.436 151.655 84.6778" stroke="#332E2B" stroke-width="2" stroke-linecap="round" stroke-linejoin="round"/>
<path d="M54.12 187.455C56.338 189.362 58.0809 191.767 59.2087 194.477C60.3365 197.187 60.8176 200.125 60.6134 203.056C60.4092 205.987 59.5253 208.829 58.0329 211.353C56.5405 213.878 54.4811 216.014 52.0204 217.59C49.5597 219.167 46.7662 220.139 43.8646 220.43C40.9631 220.721 38.0343 220.321 35.3138 219.264C32.5932 218.206 30.1569 216.52 28.2006 214.341C26.2443 212.162 24.8226 209.551 24.0499 206.718C23.9114 206.225 23.8 205.728 23.7036 205.221C22.9873 201.401 23.4651 197.451 25.0712 193.916C26.6772 190.382 29.3322 187.436 32.67 185.487C36.0077 183.537 39.8636 182.679 43.7057 183.032C47.5477 183.384 51.1865 184.93 54.12 187.455V187.455Z" stroke="#332E2B" stroke-width="2" stroke-linecap="round" stroke-linejoin="round"/>
<path d="M50.6093 191.347C52.9534 193.314 54.5627 196.027 55.1722 199.038C55.7816 202.05 55.3548 205.181 53.9621 207.916C52.5694 210.651 50.2938 212.826 47.5102 214.083C44.7267 215.34 41.6012 215.605 38.6486 214.832C35.6961 214.06 33.0927 212.298 31.2672 209.835C29.4417 207.372 28.5031 204.357 28.606 201.285C28.7089 198.212 29.8472 195.267 31.8333 192.934C33.8193 190.601 36.5348 189.02 39.5323 188.45C41.4763 188.075 43.4788 188.14 45.3946 188.641C47.3105 189.142 49.0918 190.066 50.6093 191.347V191.347Z" stroke="#332E2B" stroke-width="2" stroke-linecap="round" stroke-linejoin="round"/>
<path d="M44.5089 215.024L45.4753 220.198" stroke="#332E2B" stroke-width="2" stroke-linecap="round" stroke-linejoin="round"/>
<path d="M50.6094 191.347L54.1196 187.455" stroke="#332E2B" stroke-width="2" stroke-linecap="round" stroke-linejoin="round"/>
<path d="M29.1164 205.753L24.0498 206.718L23.988 206.729" stroke="#332E2B" stroke-width="2" stroke-linecap="round" stroke-linejoin="round"/>
<path d="M163.241 238.717L178.602 235.795L164.604 161.018" stroke="#332E2B" stroke-width="2" stroke-linecap="round" stroke-linejoin="round"/>
<path d="M142.399 242.676L155.874 240.117" stroke="#332E2B" stroke-width="2" stroke-linecap="round" stroke-linejoin="round"/>
<path d="M135.037 244.076L142.399 242.68" stroke="#332E2B" stroke-width="2" stroke-linecap="round" stroke-linejoin="round"/>
<path d="M121.559 246.639L135.037 244.08" stroke="#332E2B" stroke-width="2" stroke-linecap="round" stroke-linejoin="round"/>
<path d="M100.718 250.603L114.196 248.039" stroke="#332E2B" stroke-width="2" stroke-linecap="round" stroke-linejoin="round"/>
<path d="M79.4141 254.653L93.3556 252.003" stroke="#332E2B" stroke-width="2" stroke-linecap="round" stroke-linejoin="round"/>
<path d="M46.422 235.158L32.4594 237.814L30.8984 229.467L44.8595 226.817L46.422 235.158Z" stroke="#332E2B" stroke-width="2" stroke-linecap="round" stroke-linejoin="round"/>
<path d="M48.7523 247.598L34.7898 250.254L33.2288 241.907L47.1899 239.255L48.7523 247.598Z" stroke="#332E2B" stroke-width="2" stroke-linecap="round" stroke-linejoin="round"/>
<path d="M51.0775 260.037L37.121 262.693L35.5585 254.345L49.5151 251.695L51.0775 260.037Z" stroke="#332E2B" stroke-width="2" stroke-linecap="round" stroke-linejoin="round"/>
<path d="M100.717 250.603L93.3549 252.003L91.7925 243.656L79.0461 175.585L86.4143 174.185L99.1546 242.256L100.717 250.603Z" stroke="#332E2B" stroke-width="2" stroke-linecap="round" stroke-linejoin="round"/>
<path d="M121.559 246.639L114.195 248.039L107.195 210.651L99.8881 171.622L107.256 170.222L114.563 209.251L121.559 246.639Z" stroke="#332E2B" stroke-width="2" stroke-linecap="round" stroke-linejoin="round"/>
<path d="M142.399 242.68L135.037 244.08V244.076L131.144 223.294L120.73 167.663L128.092 166.263L138.508 221.895L142.399 242.676V242.68Z" stroke="#332E2B" stroke-width="2" stroke-linecap="round" stroke-linejoin="round"/>
<path d="M163.241 238.717L155.874 240.117L146.603 190.572L141.57 163.7L148.933 162.3L153.965 189.172L163.241 238.717Z" stroke="#332E2B" stroke-width="2" stroke-linecap="round" stroke-linejoin="round"/>
<path d="M91.7933 243.656L99.1555 242.256" stroke="#332E2B" stroke-width="2" stroke-linecap="round" stroke-linejoin="round"/>
<path d="M107.194 210.651L114.556 209.251" stroke="#332E2B" stroke-width="2" stroke-linecap="round" stroke-linejoin="round"/>
<path d="M131.145 223.294L138.508 221.896" stroke="#332E2B" stroke-width="2" stroke-linecap="round" stroke-linejoin="round"/>
<path d="M146.603 190.572L153.965 189.172" stroke="#332E2B" stroke-width="2" stroke-linecap="round" stroke-linejoin="round"/>
<path d="M274.403 142.037L244 172.673L213.598 203.308" stroke="#332E2B" stroke-width="2" stroke-linecap="round" stroke-linejoin="round"/>
<path d="M213.598 142.037L244 172.673" stroke="#332E2B" stroke-width="2" stroke-linecap="round" stroke-linejoin="round"/>
<path d="M53.7739 14.7424L50.0951 1" stroke="#332E2B" stroke-width="2" stroke-linecap="round" stroke-linejoin="round"/>
<path d="M69.7153 14.7424L71.201 2.42133" stroke="#332E2B" stroke-width="2" stroke-linecap="round" stroke-linejoin="round"/>
<path d="M39.6997 24.1965L31.6 14.7422" stroke="#332E2B" stroke-width="2" stroke-linecap="round" stroke-linejoin="round"/>
</svg>
