<svg width="32" height="32" viewBox="0 0 32 32" fill="none" xmlns="http://www.w3.org/2000/svg">
<path fill-rule="evenodd" clip-rule="evenodd" d="M7.10576 15.2447C6.96475 15.3857 6.96475 15.6143 7.10576 15.7553L10.2709 18.9205C10.4119 19.0615 10.6405 19.0615 10.7816 18.9205L13.9467 15.7553C14.0877 15.6143 14.0877 15.3857 13.9467 15.2447L10.7816 12.0795C10.6405 11.9385 10.4119 11.9385 10.2709 12.0795L7.10576 15.2447Z" fill="currentColor"/>
<path fill-rule="evenodd" clip-rule="evenodd" d="M12.0795 10.2709C11.9385 10.4119 11.9385 10.6405 12.0795 10.7816L15.2447 13.9467C15.3857 14.0877 15.6143 14.0877 15.7553 13.9467L18.9205 10.7816C19.0615 10.6405 19.0615 10.4119 18.9205 10.2709L15.7553 7.10576C15.6143 6.96475 15.3857 6.96475 15.2447 7.10576L12.0795 10.2709ZM15.5 13.1807L12.8456 10.5262L15.5 7.87178L18.1545 10.5262L15.5 13.1807Z" fill="currentColor"/>
<path fill-rule="evenodd" clip-rule="evenodd" d="M17.0533 15.7553C16.9123 15.6143 16.9123 15.3857 17.0533 15.2447L20.2184 12.0795C20.3595 11.9385 20.5881 11.9385 20.7291 12.0795L23.8942 15.2447C24.0353 15.3857 24.0353 15.6143 23.8942 15.7553L20.7291 18.9205C20.5881 19.0615 20.3595 19.0615 20.2184 18.9205L17.0533 15.7553Z" fill="currentColor"/>
<path fill-rule="evenodd" clip-rule="evenodd" d="M12.0795 20.2184C11.9385 20.3595 11.9385 20.5881 12.0795 20.7291L15.2447 23.8942C15.3857 24.0353 15.6143 24.0353 15.7553 23.8942L18.9205 20.7291C19.0615 20.5881 19.0615 20.3595 18.9205 20.2184L15.7553 17.0533C15.6143 16.9123 15.3857 16.9123 15.2447 17.0533L12.0795 20.2184ZM15.5 23.1282L12.8456 20.4738L15.5 17.8193L18.1545 20.4738L15.5 23.1282Z" fill="currentColor"/>
</svg>
